<svg width="32" height="32" viewBox="0 0 32 32" fill="none" xmlns="http://www.w3.org/2000/svg">
    <rect width="32" height="32" fill="#5DA20A"/>
    <path fill-rule="evenodd" clip-rule="evenodd" d="M24.0001 15.3204C24.5524 15.3204 25.0001 15.7681 25.0001 16.3204V24.3204C25.0001 25.4249 24.1047 26.3204 23.0001 26.3204H9.00013C7.89556 26.3204 7.00013 25.4249 7.00013 24.3204V16.3204C7.00013 15.7681 7.44785 15.3204 8.00013 15.3204C8.55242 15.3204 9.00013 15.7681 9.00013 16.3204V23.8204C9.00013 24.0965 9.22399 24.3204 9.50013 24.3204H22.5001C22.7763 24.3204 23.0001 24.0965 23.0001 23.8204V16.3204C23.0001 15.8075 23.3862 15.3849 23.8835 15.3271L24.0001 15.3204ZM16.8851 11.5575L20.1151 13.4225C20.6628 13.7387 21.0001 14.323 21.0001 14.9554V18.6853C21.0001 19.3177 20.6628 19.9021 20.1151 20.2183L16.8851 22.0832C16.3375 22.3994 15.6628 22.3994 15.1151 22.0832L11.8851 20.2183C11.3375 19.9021 11.0001 19.3177 11.0001 18.6853V14.9554C11.0001 14.323 11.3375 13.7387 11.8851 13.4225L15.1151 11.5575C15.6628 11.2413 16.3375 11.2413 16.8851 11.5575ZM12.5001 15.4614V18.6853C12.5001 18.7818 12.5516 18.871 12.6352 18.9193L15.2501 20.4284V17.0084L12.5001 15.4614ZM19.5001 15.4614L16.7501 17.0084V20.4274L19.3651 18.9193C19.4487 18.871 19.5001 18.7818 19.5001 18.6853V15.4614ZM15.8652 12.8565L13.4281 14.2634L16.0001 15.7094L18.5711 14.2634L16.1351 12.8565C16.0516 12.8083 15.9487 12.8083 15.8652 12.8565ZM16.7951 5.88801L26.5301 11.9724C26.9985 12.2651 27.1408 12.882 26.8481 13.3504C26.5554 13.8187 25.9385 13.9611 25.4701 13.6684L16.1327 7.83122C16.0516 7.78054 15.9487 7.78054 15.8676 7.83122L6.53013 13.6684C6.09525 13.9402 5.53222 13.8368 5.21965 13.4457L5.15214 13.3504C4.85943 12.882 5.0018 12.2651 5.47013 11.9724L15.2051 5.88801C15.6915 5.584 16.3087 5.584 16.7951 5.88801Z" fill="white"/>
</svg>
