<?xml version="1.0" encoding="UTF-8"?>
<svg width="32px" height="32px" viewBox="0 0 32 32" version="1.1" xmlns="http://www.w3.org/2000/svg" xmlns:xlink="http://www.w3.org/1999/xlink">
    <title>Logo/Dodo</title>
    <g id="Logo/Dodo" stroke="none" stroke-width="1" fill="none" fill-rule="evenodd">
        <rect id="Background" fill="#25A791" x="0" y="0" width="32" height="32"></rect>
        <g id="dodo-sdd" transform="translate(2.000000, 12.500000)" fill="#FFFFFF" fill-rule="nonzero">
            <path d="M10.2260628,4.74997031 C9.5537278,4.74997031 9.00866447,4.19033139 9.00866447,3.49998812 C9.00866447,2.8096211 9.5537278,2.24998931 10.2260628,2.24998931 C10.8983978,2.24998931 11.443438,2.8096211 11.443438,3.49998812 C11.443438,4.19033139 10.8983978,4.74997031 10.2260628,4.74997031 Z M10.2260628,0 C8.34350165,0 6.81735207,1.56700083 6.81735207,3.49998812 C6.81735207,5.43297304 8.34347851,6.99997624 10.2260628,6.99997624 C12.108624,6.99997624 13.6347504,5.43299679 13.6347504,3.49998812 C13.6347504,1.56700558 12.108624,0 10.2260628,0 Z" id="Shape"></path>
            <path d="M2.92171901,4.74997031 C2.24938169,4.74997031 1.70433455,4.19033139 1.70433455,3.49998812 C1.70433455,2.8096211 2.24938169,2.24998693 2.92171901,2.24998693 C3.59407716,2.24998693 4.13911736,2.8096211 4.13911736,3.49998812 C4.13911736,4.19033139 3.59407716,4.74997031 2.92171901,4.74997031 Z M2.67830412,0 L2.67828099,0 L2.67828099,0 L0,0 L0,6.99997624 L2.67828099,6.99997624 L2.67828099,6.99997624 L2.67830412,6.99997624 C4.56086529,6.99997624 6.08696859,5.43297304 6.08696859,3.49998812 C6.08696859,1.56701984 4.56086529,0 2.67830412,0" id="Shape"></path>
            <path d="M24.5913587,4.74997031 C23.9190237,4.74997031 23.3739372,4.19033139 23.3739372,3.49998812 C23.3739372,2.8096211 23.9190237,2.24998931 24.5913587,2.24998931 C25.2636937,2.24998931 25.8085488,2.8096211 25.8085488,3.49998812 C25.8085488,4.19033139 25.2636937,4.74997031 24.5913587,4.74997031 Z M24.5913587,0 C22.708705,0 21.1825785,1.56700083 21.1825785,3.49998812 C21.1825785,5.43297304 22.708705,6.99997624 24.5913587,6.99997624 C26.473943,6.99997624 28,5.43299679 28,3.49998812 C28,1.56700558 26.473943,0 24.5913587,0 Z" id="Shape"></path>
            <path d="M16.3131008,5.00000713 L16.3131008,2.00000713 L18.5043901,3.49998812 L16.3131008,5.00000713 L16.3131008,5.00000713 Z M17.0435768,0 L17.0435768,0 L17.0435768,0 L14.3652727,0 L14.3652727,7 L17.0435768,7 L17.0435768,7 L17.0435768,7 C18.926138,7 20.4522644,5.43297304 20.4522644,3.49998812 C20.4522644,1.56701033 18.926138,0 17.0435768,0" id="Shape"></path>
        </g>
    </g>
</svg>